<?xml version="1.0" encoding="UTF-8" standalone="no"?>
<!DOCTYPE svg PUBLIC "-//W3C//DTD SVG 1.1//EN"
 "http://www.w3.org/Graphics/SVG/1.1/DTD/svg11.dtd">
<!-- Generated by graphviz version 14.1.5 (20260411.2331)
 -->
<!-- Title: ArvoreBt Pages: 1 -->
<svg width="361pt" height="118pt"
 viewBox="0.00 0.00 361.00 118.00" xmlns="http://www.w3.org/2000/svg" xmlns:xlink="http://www.w3.org/1999/xlink">
<g id="graph0" class="graph" transform="scale(1 1) rotate(0) translate(4 114)">
<title>ArvoreBt</title>
<polygon fill="white" stroke="none" points="-4,4 -4,-114 357,-114 357,4 -4,4"/>
<!-- node0 -->
<g id="node1" class="node">
<title>node0</title>
<polygon fill="lightblue" stroke="black" points="116.38,-73.5 116.38,-109.5 274.12,-109.5 274.12,-73.5 116.38,-73.5"/>
<text xml:space="preserve" text-anchor="middle" x="125.88" y="-86.47" font-family="Helvetica,sans-Serif" font-size="12.00"> </text>
<polyline fill="none" stroke="black" points="135.38,-73.5 135.38,-109.5"/>
<text xml:space="preserve" text-anchor="middle" x="146.75" y="-86.47" font-family="Helvetica,sans-Serif" font-size="12.00">6</text>
<polyline fill="none" stroke="black" points="158.12,-73.5 158.12,-109.5"/>
<text xml:space="preserve" text-anchor="middle" x="167.62" y="-86.47" font-family="Helvetica,sans-Serif" font-size="12.00"> </text>
<polyline fill="none" stroke="black" points="177.12,-73.5 177.12,-109.5"/>
<text xml:space="preserve" text-anchor="middle" x="191.88" y="-86.47" font-family="Helvetica,sans-Serif" font-size="12.00">10</text>
<polyline fill="none" stroke="black" points="206.62,-73.5 206.62,-109.5"/>
<text xml:space="preserve" text-anchor="middle" x="216.12" y="-86.47" font-family="Helvetica,sans-Serif" font-size="12.00"> </text>
<polyline fill="none" stroke="black" points="225.62,-73.5 225.62,-109.5"/>
<text xml:space="preserve" text-anchor="middle" x="240.38" y="-86.47" font-family="Helvetica,sans-Serif" font-size="12.00">15</text>
<polyline fill="none" stroke="black" points="255.12,-73.5 255.12,-109.5"/>
<text xml:space="preserve" text-anchor="middle" x="264.62" y="-86.47" font-family="Helvetica,sans-Serif" font-size="12.00"> </text>
</g>
<!-- node1 -->
<g id="node2" class="node">
<title>node1</title>
<polygon fill="lightblue" stroke="black" points="0,-0.5 0,-36.5 102.5,-36.5 102.5,-0.5 0,-0.5"/>
<text xml:space="preserve" text-anchor="middle" x="9.5" y="-13.47" font-family="Helvetica,sans-Serif" font-size="12.00"> </text>
<polyline fill="none" stroke="black" points="19,-0.5 19,-36.5"/>
<text xml:space="preserve" text-anchor="middle" x="30.38" y="-13.47" font-family="Helvetica,sans-Serif" font-size="12.00">3</text>
<polyline fill="none" stroke="black" points="41.75,-0.5 41.75,-36.5"/>
<text xml:space="preserve" text-anchor="middle" x="51.25" y="-13.47" font-family="Helvetica,sans-Serif" font-size="12.00"> </text>
<polyline fill="none" stroke="black" points="60.75,-0.5 60.75,-36.5"/>
<text xml:space="preserve" text-anchor="middle" x="72.12" y="-13.47" font-family="Helvetica,sans-Serif" font-size="12.00">5</text>
<polyline fill="none" stroke="black" points="83.5,-0.5 83.5,-36.5"/>
<text xml:space="preserve" text-anchor="middle" x="93" y="-13.47" font-family="Helvetica,sans-Serif" font-size="12.00"> </text>
</g>
<!-- node0&#45;&gt;node1 -->
<g id="edge1" class="edge">
<title>node0:p0&#45;&gt;node1</title>
<path fill="none" stroke="black" d="M125.88,-73C125.88,-59.67 117.91,-49.33 107.18,-41.47"/>
<polygon fill="black" stroke="black" points="108.66,-39.5 101.46,-37.71 105.97,-43.6 108.66,-39.5"/>
</g>
<!-- node2 -->
<g id="node3" class="node">
<title>node2</title>
<polygon fill="lightblue" stroke="black" points="120.88,-0.5 120.88,-36.5 181.62,-36.5 181.62,-0.5 120.88,-0.5"/>
<text xml:space="preserve" text-anchor="middle" x="130.38" y="-13.47" font-family="Helvetica,sans-Serif" font-size="12.00"> </text>
<polyline fill="none" stroke="black" points="139.88,-0.5 139.88,-36.5"/>
<text xml:space="preserve" text-anchor="middle" x="151.25" y="-13.47" font-family="Helvetica,sans-Serif" font-size="12.00">7</text>
<polyline fill="none" stroke="black" points="162.62,-0.5 162.62,-36.5"/>
<text xml:space="preserve" text-anchor="middle" x="172.12" y="-13.47" font-family="Helvetica,sans-Serif" font-size="12.00"> </text>
</g>
<!-- node0&#45;&gt;node2 -->
<g id="edge2" class="edge">
<title>node0:p1&#45;&gt;node2</title>
<path fill="none" stroke="black" d="M167.62,-73C167.62,-63.58 165.27,-53.61 162.35,-44.87"/>
<polygon fill="black" stroke="black" points="164.67,-44.07 159.96,-38.35 160.07,-45.76 164.67,-44.07"/>
</g>
<!-- node3 -->
<g id="node4" class="node">
<title>node3</title>
<polygon fill="lightblue" stroke="black" points="199.5,-0.5 199.5,-36.5 267,-36.5 267,-0.5 199.5,-0.5"/>
<text xml:space="preserve" text-anchor="middle" x="209" y="-13.47" font-family="Helvetica,sans-Serif" font-size="12.00"> </text>
<polyline fill="none" stroke="black" points="218.5,-0.5 218.5,-36.5"/>
<text xml:space="preserve" text-anchor="middle" x="233.25" y="-13.47" font-family="Helvetica,sans-Serif" font-size="12.00">12</text>
<polyline fill="none" stroke="black" points="248,-0.5 248,-36.5"/>
<text xml:space="preserve" text-anchor="middle" x="257.5" y="-13.47" font-family="Helvetica,sans-Serif" font-size="12.00"> </text>
</g>
<!-- node0&#45;&gt;node3 -->
<g id="edge3" class="edge">
<title>node0:p2&#45;&gt;node3</title>
<path fill="none" stroke="black" d="M216.12,-73C216.12,-63.54 218.58,-53.57 221.64,-44.83"/>
<polygon fill="black" stroke="black" points="223.92,-45.71 224.14,-38.3 219.35,-43.96 223.92,-45.71"/>
</g>
<!-- node4 -->
<g id="node5" class="node">
<title>node4</title>
<polygon fill="lightblue" stroke="black" points="285.5,-0.5 285.5,-36.5 353,-36.5 353,-0.5 285.5,-0.5"/>
<text xml:space="preserve" text-anchor="middle" x="295" y="-13.47" font-family="Helvetica,sans-Serif" font-size="12.00"> </text>
<polyline fill="none" stroke="black" points="304.5,-0.5 304.5,-36.5"/>
<text xml:space="preserve" text-anchor="middle" x="319.25" y="-13.47" font-family="Helvetica,sans-Serif" font-size="12.00">17</text>
<polyline fill="none" stroke="black" points="334,-0.5 334,-36.5"/>
<text xml:space="preserve" text-anchor="middle" x="343.5" y="-13.47" font-family="Helvetica,sans-Serif" font-size="12.00"> </text>
</g>
<!-- node0&#45;&gt;node4 -->
<g id="edge4" class="edge">
<title>node0:p3&#45;&gt;node4</title>
<path fill="none" stroke="black" d="M264.62,-73C264.62,-60.81 271.65,-50.49 280.66,-42.25"/>
<polygon fill="black" stroke="black" points="282.15,-44.2 285.99,-37.85 279.03,-40.42 282.15,-44.2"/>
</g>
</g>
</svg>
