<?xml version="1.0" encoding="UTF-8" standalone="no"?>
<!DOCTYPE svg PUBLIC "-//W3C//DTD SVG 1.1//EN"
 "http://www.w3.org/Graphics/SVG/1.1/DTD/svg11.dtd">
<!-- Generated by graphviz version 14.1.5 (20260411.2331)
 -->
<!-- Title: ArvoreBt Pages: 1 -->
<svg width="827pt" height="118pt"
 viewBox="0.00 0.00 827.00 118.00" xmlns="http://www.w3.org/2000/svg" xmlns:xlink="http://www.w3.org/1999/xlink">
<g id="graph0" class="graph" transform="scale(1 1) rotate(0) translate(4 114)">
<title>ArvoreBt</title>
<polygon fill="white" stroke="none" points="-4,4 -4,-114 823.25,-114 823.25,4 -4,4"/>
<!-- node0 -->
<g id="node1" class="node">
<title>node0</title>
<polygon fill="lightblue" stroke="black" points="265.88,-73.5 265.88,-109.5 520.62,-109.5 520.62,-73.5 265.88,-73.5"/>
<text xml:space="preserve" text-anchor="middle" x="275.38" y="-86.47" font-family="Helvetica,sans-Serif" font-size="12.00"> </text>
<polyline fill="none" stroke="black" points="284.88,-73.5 284.88,-109.5"/>
<text xml:space="preserve" text-anchor="middle" x="296.25" y="-86.47" font-family="Helvetica,sans-Serif" font-size="12.00">5</text>
<polyline fill="none" stroke="black" points="307.62,-73.5 307.62,-109.5"/>
<text xml:space="preserve" text-anchor="middle" x="317.12" y="-86.47" font-family="Helvetica,sans-Serif" font-size="12.00"> </text>
<polyline fill="none" stroke="black" points="326.62,-73.5 326.62,-109.5"/>
<text xml:space="preserve" text-anchor="middle" x="341.38" y="-86.47" font-family="Helvetica,sans-Serif" font-size="12.00">12</text>
<polyline fill="none" stroke="black" points="356.12,-73.5 356.12,-109.5"/>
<text xml:space="preserve" text-anchor="middle" x="365.62" y="-86.47" font-family="Helvetica,sans-Serif" font-size="12.00"> </text>
<polyline fill="none" stroke="black" points="375.12,-73.5 375.12,-109.5"/>
<text xml:space="preserve" text-anchor="middle" x="389.88" y="-86.47" font-family="Helvetica,sans-Serif" font-size="12.00">16</text>
<polyline fill="none" stroke="black" points="404.62,-73.5 404.62,-109.5"/>
<text xml:space="preserve" text-anchor="middle" x="414.12" y="-86.47" font-family="Helvetica,sans-Serif" font-size="12.00"> </text>
<polyline fill="none" stroke="black" points="423.62,-73.5 423.62,-109.5"/>
<text xml:space="preserve" text-anchor="middle" x="438.38" y="-86.47" font-family="Helvetica,sans-Serif" font-size="12.00">20</text>
<polyline fill="none" stroke="black" points="453.12,-73.5 453.12,-109.5"/>
<text xml:space="preserve" text-anchor="middle" x="462.62" y="-86.47" font-family="Helvetica,sans-Serif" font-size="12.00"> </text>
<polyline fill="none" stroke="black" points="472.12,-73.5 472.12,-109.5"/>
<text xml:space="preserve" text-anchor="middle" x="486.88" y="-86.47" font-family="Helvetica,sans-Serif" font-size="12.00">24</text>
<polyline fill="none" stroke="black" points="501.62,-73.5 501.62,-109.5"/>
<text xml:space="preserve" text-anchor="middle" x="511.12" y="-86.47" font-family="Helvetica,sans-Serif" font-size="12.00"> </text>
</g>
<!-- node1 -->
<g id="node2" class="node">
<title>node1</title>
<polygon fill="lightblue" stroke="black" points="0,-0.5 0,-36.5 102.5,-36.5 102.5,-0.5 0,-0.5"/>
<text xml:space="preserve" text-anchor="middle" x="9.5" y="-13.47" font-family="Helvetica,sans-Serif" font-size="12.00"> </text>
<polyline fill="none" stroke="black" points="19,-0.5 19,-36.5"/>
<text xml:space="preserve" text-anchor="middle" x="30.38" y="-13.47" font-family="Helvetica,sans-Serif" font-size="12.00">1</text>
<polyline fill="none" stroke="black" points="41.75,-0.5 41.75,-36.5"/>
<text xml:space="preserve" text-anchor="middle" x="51.25" y="-13.47" font-family="Helvetica,sans-Serif" font-size="12.00"> </text>
<polyline fill="none" stroke="black" points="60.75,-0.5 60.75,-36.5"/>
<text xml:space="preserve" text-anchor="middle" x="72.12" y="-13.47" font-family="Helvetica,sans-Serif" font-size="12.00">3</text>
<polyline fill="none" stroke="black" points="83.5,-0.5 83.5,-36.5"/>
<text xml:space="preserve" text-anchor="middle" x="93" y="-13.47" font-family="Helvetica,sans-Serif" font-size="12.00"> </text>
</g>
<!-- node0&#45;&gt;node1 -->
<g id="edge1" class="edge">
<title>node0:p0&#45;&gt;node1</title>
<path fill="none" stroke="black" d="M264.88,-91.5C200.77,-91.5 131.24,-62.02 89.47,-40.79"/>
<polygon fill="black" stroke="black" points="90.69,-38.66 83.35,-37.62 88.44,-43.01 90.69,-38.66"/>
</g>
<!-- node2 -->
<g id="node3" class="node">
<title>node2</title>
<polygon fill="lightblue" stroke="black" points="121,-0.5 121,-36.5 235.5,-36.5 235.5,-0.5 121,-0.5"/>
<text xml:space="preserve" text-anchor="middle" x="130.5" y="-13.47" font-family="Helvetica,sans-Serif" font-size="12.00"> </text>
<polyline fill="none" stroke="black" points="140,-0.5 140,-36.5"/>
<text xml:space="preserve" text-anchor="middle" x="154.75" y="-13.47" font-family="Helvetica,sans-Serif" font-size="12.00">10</text>
<polyline fill="none" stroke="black" points="169.5,-0.5 169.5,-36.5"/>
<text xml:space="preserve" text-anchor="middle" x="179" y="-13.47" font-family="Helvetica,sans-Serif" font-size="12.00"> </text>
<polyline fill="none" stroke="black" points="188.5,-0.5 188.5,-36.5"/>
<text xml:space="preserve" text-anchor="middle" x="202.5" y="-13.47" font-family="Helvetica,sans-Serif" font-size="12.00">11</text>
<polyline fill="none" stroke="black" points="216.5,-0.5 216.5,-36.5"/>
<text xml:space="preserve" text-anchor="middle" x="226" y="-13.47" font-family="Helvetica,sans-Serif" font-size="12.00"> </text>
</g>
<!-- node0&#45;&gt;node2 -->
<g id="edge2" class="edge">
<title>node0:p1&#45;&gt;node2</title>
<path fill="none" stroke="black" d="M317.12,-73C317.12,-64.44 279.93,-50.41 244.04,-38.87"/>
<polygon fill="black" stroke="black" points="244.79,-36.54 237.38,-36.75 243.31,-41.21 244.79,-36.54"/>
</g>
<!-- node3 -->
<g id="node4" class="node">
<title>node3</title>
<polygon fill="lightblue" stroke="black" points="253.25,-0.5 253.25,-36.5 369.25,-36.5 369.25,-0.5 253.25,-0.5"/>
<text xml:space="preserve" text-anchor="middle" x="262.75" y="-13.47" font-family="Helvetica,sans-Serif" font-size="12.00"> </text>
<polyline fill="none" stroke="black" points="272.25,-0.5 272.25,-36.5"/>
<text xml:space="preserve" text-anchor="middle" x="287" y="-13.47" font-family="Helvetica,sans-Serif" font-size="12.00">14</text>
<polyline fill="none" stroke="black" points="301.75,-0.5 301.75,-36.5"/>
<text xml:space="preserve" text-anchor="middle" x="311.25" y="-13.47" font-family="Helvetica,sans-Serif" font-size="12.00"> </text>
<polyline fill="none" stroke="black" points="320.75,-0.5 320.75,-36.5"/>
<text xml:space="preserve" text-anchor="middle" x="335.5" y="-13.47" font-family="Helvetica,sans-Serif" font-size="12.00">15</text>
<polyline fill="none" stroke="black" points="350.25,-0.5 350.25,-36.5"/>
<text xml:space="preserve" text-anchor="middle" x="359.75" y="-13.47" font-family="Helvetica,sans-Serif" font-size="12.00"> </text>
</g>
<!-- node0&#45;&gt;node3 -->
<g id="edge3" class="edge">
<title>node0:p2&#45;&gt;node3</title>
<path fill="none" stroke="black" d="M365.62,-73C365.62,-60.84 358.63,-50.52 349.66,-42.29"/>
<polygon fill="black" stroke="black" points="351.31,-40.47 344.36,-37.89 348.18,-44.24 351.31,-40.47"/>
</g>
<!-- node4 -->
<g id="node5" class="node">
<title>node4</title>
<polygon fill="lightblue" stroke="black" points="387,-0.5 387,-36.5 551.5,-36.5 551.5,-0.5 387,-0.5"/>
<text xml:space="preserve" text-anchor="middle" x="396.5" y="-13.47" font-family="Helvetica,sans-Serif" font-size="12.00"> </text>
<polyline fill="none" stroke="black" points="406,-0.5 406,-36.5"/>
<text xml:space="preserve" text-anchor="middle" x="420.75" y="-13.47" font-family="Helvetica,sans-Serif" font-size="12.00">17</text>
<polyline fill="none" stroke="black" points="435.5,-0.5 435.5,-36.5"/>
<text xml:space="preserve" text-anchor="middle" x="445" y="-13.47" font-family="Helvetica,sans-Serif" font-size="12.00"> </text>
<polyline fill="none" stroke="black" points="454.5,-0.5 454.5,-36.5"/>
<text xml:space="preserve" text-anchor="middle" x="469.25" y="-13.47" font-family="Helvetica,sans-Serif" font-size="12.00">18</text>
<polyline fill="none" stroke="black" points="484,-0.5 484,-36.5"/>
<text xml:space="preserve" text-anchor="middle" x="493.5" y="-13.47" font-family="Helvetica,sans-Serif" font-size="12.00"> </text>
<polyline fill="none" stroke="black" points="503,-0.5 503,-36.5"/>
<text xml:space="preserve" text-anchor="middle" x="517.75" y="-13.47" font-family="Helvetica,sans-Serif" font-size="12.00">19</text>
<polyline fill="none" stroke="black" points="532.5,-0.5 532.5,-36.5"/>
<text xml:space="preserve" text-anchor="middle" x="542" y="-13.47" font-family="Helvetica,sans-Serif" font-size="12.00"> </text>
</g>
<!-- node0&#45;&gt;node4 -->
<g id="edge4" class="edge">
<title>node0:p3&#45;&gt;node4</title>
<path fill="none" stroke="black" d="M414.12,-73C414.12,-60.76 421.22,-50.41 430.31,-42.18"/>
<polygon fill="black" stroke="black" points="431.82,-44.11 435.69,-37.78 428.72,-40.32 431.82,-44.11"/>
</g>
<!-- node5 -->
<g id="node6" class="node">
<title>node5</title>
<polygon fill="lightblue" stroke="black" points="569.25,-0.5 569.25,-36.5 685.25,-36.5 685.25,-0.5 569.25,-0.5"/>
<text xml:space="preserve" text-anchor="middle" x="578.75" y="-13.47" font-family="Helvetica,sans-Serif" font-size="12.00"> </text>
<polyline fill="none" stroke="black" points="588.25,-0.5 588.25,-36.5"/>
<text xml:space="preserve" text-anchor="middle" x="603" y="-13.47" font-family="Helvetica,sans-Serif" font-size="12.00">21</text>
<polyline fill="none" stroke="black" points="617.75,-0.5 617.75,-36.5"/>
<text xml:space="preserve" text-anchor="middle" x="627.25" y="-13.47" font-family="Helvetica,sans-Serif" font-size="12.00"> </text>
<polyline fill="none" stroke="black" points="636.75,-0.5 636.75,-36.5"/>
<text xml:space="preserve" text-anchor="middle" x="651.5" y="-13.47" font-family="Helvetica,sans-Serif" font-size="12.00">22</text>
<polyline fill="none" stroke="black" points="666.25,-0.5 666.25,-36.5"/>
<text xml:space="preserve" text-anchor="middle" x="675.75" y="-13.47" font-family="Helvetica,sans-Serif" font-size="12.00"> </text>
</g>
<!-- node0&#45;&gt;node5 -->
<g id="edge5" class="edge">
<title>node0:p4&#45;&gt;node5</title>
<path fill="none" stroke="black" d="M462.62,-73C462.62,-67.56 515.3,-51.16 561.06,-37.93"/>
<polygon fill="black" stroke="black" points="561.7,-40.3 567.75,-36.01 560.35,-35.59 561.7,-40.3"/>
</g>
<!-- node6 -->
<g id="node7" class="node">
<title>node6</title>
<polygon fill="lightblue" stroke="black" points="703.25,-0.5 703.25,-36.5 819.25,-36.5 819.25,-0.5 703.25,-0.5"/>
<text xml:space="preserve" text-anchor="middle" x="712.75" y="-13.47" font-family="Helvetica,sans-Serif" font-size="12.00"> </text>
<polyline fill="none" stroke="black" points="722.25,-0.5 722.25,-36.5"/>
<text xml:space="preserve" text-anchor="middle" x="737" y="-13.47" font-family="Helvetica,sans-Serif" font-size="12.00">25</text>
<polyline fill="none" stroke="black" points="751.75,-0.5 751.75,-36.5"/>
<text xml:space="preserve" text-anchor="middle" x="761.25" y="-13.47" font-family="Helvetica,sans-Serif" font-size="12.00"> </text>
<polyline fill="none" stroke="black" points="770.75,-0.5 770.75,-36.5"/>
<text xml:space="preserve" text-anchor="middle" x="785.5" y="-13.47" font-family="Helvetica,sans-Serif" font-size="12.00">26</text>
<polyline fill="none" stroke="black" points="800.25,-0.5 800.25,-36.5"/>
<text xml:space="preserve" text-anchor="middle" x="809.75" y="-13.47" font-family="Helvetica,sans-Serif" font-size="12.00"> </text>
</g>
<!-- node0&#45;&gt;node6 -->
<g id="edge6" class="edge">
<title>node0:p5&#45;&gt;node6</title>
<path fill="none" stroke="black" d="M521.62,-91.5C593.22,-91.5 671.96,-61.65 718.96,-40.39"/>
<polygon fill="black" stroke="black" points="719.79,-42.71 725.13,-37.56 717.75,-38.25 719.79,-42.71"/>
</g>
</g>
</svg>
