<?xml version="1.0" encoding="UTF-8" standalone="no"?>
<!DOCTYPE svg PUBLIC "-//W3C//DTD SVG 1.1//EN"
 "http://www.w3.org/Graphics/SVG/1.1/DTD/svg11.dtd">
<!-- Generated by graphviz version 14.1.5 (20260411.2331)
 -->
<!-- Title: ArvoreBt Pages: 1 -->
<svg width="1038pt" height="191pt"
 viewBox="0.00 0.00 1038.00 191.00" xmlns="http://www.w3.org/2000/svg" xmlns:xlink="http://www.w3.org/1999/xlink">
<g id="graph0" class="graph" transform="scale(1 1) rotate(0) translate(4 187)">
<title>ArvoreBt</title>
<polygon fill="white" stroke="none" points="-4,4 -4,-187 1034.25,-187 1034.25,4 -4,4"/>
<!-- node0 -->
<g id="node1" class="node">
<title>node0</title>
<polygon fill="lightblue" stroke="black" points="503.5,-146.5 503.5,-182.5 571,-182.5 571,-146.5 503.5,-146.5"/>
<text xml:space="preserve" text-anchor="middle" x="513" y="-159.47" font-family="Helvetica,sans-Serif" font-size="12.00"> </text>
<polyline fill="none" stroke="black" points="522.5,-146.5 522.5,-182.5"/>
<text xml:space="preserve" text-anchor="middle" x="537.25" y="-159.47" font-family="Helvetica,sans-Serif" font-size="12.00">16</text>
<polyline fill="none" stroke="black" points="552,-146.5 552,-182.5"/>
<text xml:space="preserve" text-anchor="middle" x="561.5" y="-159.47" font-family="Helvetica,sans-Serif" font-size="12.00"> </text>
</g>
<!-- node1 -->
<g id="node2" class="node">
<title>node1</title>
<polygon fill="lightblue" stroke="black" points="271.75,-73.5 271.75,-109.5 422.75,-109.5 422.75,-73.5 271.75,-73.5"/>
<text xml:space="preserve" text-anchor="middle" x="281.25" y="-86.47" font-family="Helvetica,sans-Serif" font-size="12.00"> </text>
<polyline fill="none" stroke="black" points="290.75,-73.5 290.75,-109.5"/>
<text xml:space="preserve" text-anchor="middle" x="302.12" y="-86.47" font-family="Helvetica,sans-Serif" font-size="12.00">3</text>
<polyline fill="none" stroke="black" points="313.5,-73.5 313.5,-109.5"/>
<text xml:space="preserve" text-anchor="middle" x="323" y="-86.47" font-family="Helvetica,sans-Serif" font-size="12.00"> </text>
<polyline fill="none" stroke="black" points="332.5,-73.5 332.5,-109.5"/>
<text xml:space="preserve" text-anchor="middle" x="343.88" y="-86.47" font-family="Helvetica,sans-Serif" font-size="12.00">7</text>
<polyline fill="none" stroke="black" points="355.25,-73.5 355.25,-109.5"/>
<text xml:space="preserve" text-anchor="middle" x="364.75" y="-86.47" font-family="Helvetica,sans-Serif" font-size="12.00"> </text>
<polyline fill="none" stroke="black" points="374.25,-73.5 374.25,-109.5"/>
<text xml:space="preserve" text-anchor="middle" x="389" y="-86.47" font-family="Helvetica,sans-Serif" font-size="12.00">13</text>
<polyline fill="none" stroke="black" points="403.75,-73.5 403.75,-109.5"/>
<text xml:space="preserve" text-anchor="middle" x="413.25" y="-86.47" font-family="Helvetica,sans-Serif" font-size="12.00"> </text>
</g>
<!-- node0&#45;&gt;node1 -->
<g id="edge8" class="edge">
<title>node0:p0&#45;&gt;node1</title>
<path fill="none" stroke="black" d="M502.5,-164.5C454.64,-164.5 405.54,-135.99 375.71,-114.85"/>
<polygon fill="black" stroke="black" points="377.25,-112.94 370.14,-110.82 374.37,-116.91 377.25,-112.94"/>
</g>
<!-- node6 -->
<g id="node7" class="node">
<title>node6</title>
<polygon fill="lightblue" stroke="black" points="725.25,-73.5 725.25,-109.5 841.25,-109.5 841.25,-73.5 725.25,-73.5"/>
<text xml:space="preserve" text-anchor="middle" x="734.75" y="-86.47" font-family="Helvetica,sans-Serif" font-size="12.00"> </text>
<polyline fill="none" stroke="black" points="744.25,-73.5 744.25,-109.5"/>
<text xml:space="preserve" text-anchor="middle" x="759" y="-86.47" font-family="Helvetica,sans-Serif" font-size="12.00">20</text>
<polyline fill="none" stroke="black" points="773.75,-73.5 773.75,-109.5"/>
<text xml:space="preserve" text-anchor="middle" x="783.25" y="-86.47" font-family="Helvetica,sans-Serif" font-size="12.00"> </text>
<polyline fill="none" stroke="black" points="792.75,-73.5 792.75,-109.5"/>
<text xml:space="preserve" text-anchor="middle" x="807.5" y="-86.47" font-family="Helvetica,sans-Serif" font-size="12.00">24</text>
<polyline fill="none" stroke="black" points="822.25,-73.5 822.25,-109.5"/>
<text xml:space="preserve" text-anchor="middle" x="831.75" y="-86.47" font-family="Helvetica,sans-Serif" font-size="12.00"> </text>
</g>
<!-- node0&#45;&gt;node6 -->
<g id="edge9" class="edge">
<title>node0:p1&#45;&gt;node6</title>
<path fill="none" stroke="black" d="M572,-164.5C635.47,-164.5 704.21,-135.02 745.48,-113.79"/>
<polygon fill="black" stroke="black" points="746.46,-116.05 751.52,-110.63 744.18,-111.7 746.46,-116.05"/>
</g>
<!-- node2 -->
<g id="node3" class="node">
<title>node2</title>
<polygon fill="lightblue" stroke="black" points="0,-0.5 0,-36.5 102.5,-36.5 102.5,-0.5 0,-0.5"/>
<text xml:space="preserve" text-anchor="middle" x="9.5" y="-13.47" font-family="Helvetica,sans-Serif" font-size="12.00"> </text>
<polyline fill="none" stroke="black" points="19,-0.5 19,-36.5"/>
<text xml:space="preserve" text-anchor="middle" x="30.38" y="-13.47" font-family="Helvetica,sans-Serif" font-size="12.00">1</text>
<polyline fill="none" stroke="black" points="41.75,-0.5 41.75,-36.5"/>
<text xml:space="preserve" text-anchor="middle" x="51.25" y="-13.47" font-family="Helvetica,sans-Serif" font-size="12.00"> </text>
<polyline fill="none" stroke="black" points="60.75,-0.5 60.75,-36.5"/>
<text xml:space="preserve" text-anchor="middle" x="72.12" y="-13.47" font-family="Helvetica,sans-Serif" font-size="12.00">2</text>
<polyline fill="none" stroke="black" points="83.5,-0.5 83.5,-36.5"/>
<text xml:space="preserve" text-anchor="middle" x="93" y="-13.47" font-family="Helvetica,sans-Serif" font-size="12.00"> </text>
</g>
<!-- node1&#45;&gt;node2 -->
<g id="edge1" class="edge">
<title>node1:p0&#45;&gt;node2</title>
<path fill="none" stroke="black" d="M270.75,-91.5C204.92,-91.5 133.27,-61.9 90.32,-40.66"/>
<polygon fill="black" stroke="black" points="91.61,-38.56 84.26,-37.61 89.41,-42.94 91.61,-38.56"/>
</g>
<!-- node3 -->
<g id="node4" class="node">
<title>node3</title>
<polygon fill="lightblue" stroke="black" points="120.12,-0.5 120.12,-36.5 264.38,-36.5 264.38,-0.5 120.12,-0.5"/>
<text xml:space="preserve" text-anchor="middle" x="129.62" y="-13.47" font-family="Helvetica,sans-Serif" font-size="12.00"> </text>
<polyline fill="none" stroke="black" points="139.12,-0.5 139.12,-36.5"/>
<text xml:space="preserve" text-anchor="middle" x="150.5" y="-13.47" font-family="Helvetica,sans-Serif" font-size="12.00">4</text>
<polyline fill="none" stroke="black" points="161.88,-0.5 161.88,-36.5"/>
<text xml:space="preserve" text-anchor="middle" x="171.38" y="-13.47" font-family="Helvetica,sans-Serif" font-size="12.00"> </text>
<polyline fill="none" stroke="black" points="180.88,-0.5 180.88,-36.5"/>
<text xml:space="preserve" text-anchor="middle" x="192.25" y="-13.47" font-family="Helvetica,sans-Serif" font-size="12.00">5</text>
<polyline fill="none" stroke="black" points="203.62,-0.5 203.62,-36.5"/>
<text xml:space="preserve" text-anchor="middle" x="213.12" y="-13.47" font-family="Helvetica,sans-Serif" font-size="12.00"> </text>
<polyline fill="none" stroke="black" points="222.62,-0.5 222.62,-36.5"/>
<text xml:space="preserve" text-anchor="middle" x="234" y="-13.47" font-family="Helvetica,sans-Serif" font-size="12.00">6</text>
<polyline fill="none" stroke="black" points="245.38,-0.5 245.38,-36.5"/>
<text xml:space="preserve" text-anchor="middle" x="254.88" y="-13.47" font-family="Helvetica,sans-Serif" font-size="12.00"> </text>
</g>
<!-- node1&#45;&gt;node3 -->
<g id="edge2" class="edge">
<title>node1:p1&#45;&gt;node3</title>
<path fill="none" stroke="black" d="M323,-73C323,-59.72 299.6,-48.1 272.59,-39.11"/>
<polygon fill="black" stroke="black" points="273.36,-36.79 265.95,-36.99 271.87,-41.45 273.36,-36.79"/>
</g>
<!-- node4 -->
<g id="node5" class="node">
<title>node4</title>
<polygon fill="lightblue" stroke="black" points="282.75,-0.5 282.75,-36.5 445.75,-36.5 445.75,-0.5 282.75,-0.5"/>
<text xml:space="preserve" text-anchor="middle" x="292.25" y="-13.47" font-family="Helvetica,sans-Serif" font-size="12.00"> </text>
<polyline fill="none" stroke="black" points="301.75,-0.5 301.75,-36.5"/>
<text xml:space="preserve" text-anchor="middle" x="316.5" y="-13.47" font-family="Helvetica,sans-Serif" font-size="12.00">10</text>
<polyline fill="none" stroke="black" points="331.25,-0.5 331.25,-36.5"/>
<text xml:space="preserve" text-anchor="middle" x="340.75" y="-13.47" font-family="Helvetica,sans-Serif" font-size="12.00"> </text>
<polyline fill="none" stroke="black" points="350.25,-0.5 350.25,-36.5"/>
<text xml:space="preserve" text-anchor="middle" x="364.25" y="-13.47" font-family="Helvetica,sans-Serif" font-size="12.00">11</text>
<polyline fill="none" stroke="black" points="378.25,-0.5 378.25,-36.5"/>
<text xml:space="preserve" text-anchor="middle" x="387.75" y="-13.47" font-family="Helvetica,sans-Serif" font-size="12.00"> </text>
<polyline fill="none" stroke="black" points="397.25,-0.5 397.25,-36.5"/>
<text xml:space="preserve" text-anchor="middle" x="412" y="-13.47" font-family="Helvetica,sans-Serif" font-size="12.00">12</text>
<polyline fill="none" stroke="black" points="426.75,-0.5 426.75,-36.5"/>
<text xml:space="preserve" text-anchor="middle" x="436.25" y="-13.47" font-family="Helvetica,sans-Serif" font-size="12.00"> </text>
</g>
<!-- node1&#45;&gt;node4 -->
<g id="edge3" class="edge">
<title>node1:p2&#45;&gt;node4</title>
<path fill="none" stroke="black" d="M364.75,-73C364.75,-63.94 364.68,-54.03 364.59,-45.22"/>
<polygon fill="black" stroke="black" points="367.04,-45.33 364.51,-38.36 362.14,-45.39 367.04,-45.33"/>
</g>
<!-- node5 -->
<g id="node6" class="node">
<title>node5</title>
<polygon fill="lightblue" stroke="black" points="464.25,-0.5 464.25,-36.5 580.25,-36.5 580.25,-0.5 464.25,-0.5"/>
<text xml:space="preserve" text-anchor="middle" x="473.75" y="-13.47" font-family="Helvetica,sans-Serif" font-size="12.00"> </text>
<polyline fill="none" stroke="black" points="483.25,-0.5 483.25,-36.5"/>
<text xml:space="preserve" text-anchor="middle" x="498" y="-13.47" font-family="Helvetica,sans-Serif" font-size="12.00">14</text>
<polyline fill="none" stroke="black" points="512.75,-0.5 512.75,-36.5"/>
<text xml:space="preserve" text-anchor="middle" x="522.25" y="-13.47" font-family="Helvetica,sans-Serif" font-size="12.00"> </text>
<polyline fill="none" stroke="black" points="531.75,-0.5 531.75,-36.5"/>
<text xml:space="preserve" text-anchor="middle" x="546.5" y="-13.47" font-family="Helvetica,sans-Serif" font-size="12.00">15</text>
<polyline fill="none" stroke="black" points="561.25,-0.5 561.25,-36.5"/>
<text xml:space="preserve" text-anchor="middle" x="570.75" y="-13.47" font-family="Helvetica,sans-Serif" font-size="12.00"> </text>
</g>
<!-- node1&#45;&gt;node5 -->
<g id="edge4" class="edge">
<title>node1:p3&#45;&gt;node5</title>
<path fill="none" stroke="black" d="M413.25,-73C413.25,-61.16 434.24,-49.41 457.8,-39.95"/>
<polygon fill="black" stroke="black" points="458.46,-42.32 464.1,-37.51 456.69,-37.75 458.46,-42.32"/>
</g>
<!-- node7 -->
<g id="node8" class="node">
<title>node7</title>
<polygon fill="lightblue" stroke="black" points="598,-0.5 598,-36.5 762.5,-36.5 762.5,-0.5 598,-0.5"/>
<text xml:space="preserve" text-anchor="middle" x="607.5" y="-13.47" font-family="Helvetica,sans-Serif" font-size="12.00"> </text>
<polyline fill="none" stroke="black" points="617,-0.5 617,-36.5"/>
<text xml:space="preserve" text-anchor="middle" x="631.75" y="-13.47" font-family="Helvetica,sans-Serif" font-size="12.00">17</text>
<polyline fill="none" stroke="black" points="646.5,-0.5 646.5,-36.5"/>
<text xml:space="preserve" text-anchor="middle" x="656" y="-13.47" font-family="Helvetica,sans-Serif" font-size="12.00"> </text>
<polyline fill="none" stroke="black" points="665.5,-0.5 665.5,-36.5"/>
<text xml:space="preserve" text-anchor="middle" x="680.25" y="-13.47" font-family="Helvetica,sans-Serif" font-size="12.00">18</text>
<polyline fill="none" stroke="black" points="695,-0.5 695,-36.5"/>
<text xml:space="preserve" text-anchor="middle" x="704.5" y="-13.47" font-family="Helvetica,sans-Serif" font-size="12.00"> </text>
<polyline fill="none" stroke="black" points="714,-0.5 714,-36.5"/>
<text xml:space="preserve" text-anchor="middle" x="728.75" y="-13.47" font-family="Helvetica,sans-Serif" font-size="12.00">19</text>
<polyline fill="none" stroke="black" points="743.5,-0.5 743.5,-36.5"/>
<text xml:space="preserve" text-anchor="middle" x="753" y="-13.47" font-family="Helvetica,sans-Serif" font-size="12.00"> </text>
</g>
<!-- node6&#45;&gt;node7 -->
<g id="edge5" class="edge">
<title>node6:p0&#45;&gt;node7</title>
<path fill="none" stroke="black" d="M734.75,-73C734.75,-60.83 727.74,-50.5 718.75,-42.27"/>
<polygon fill="black" stroke="black" points="720.39,-40.45 713.43,-37.87 717.26,-44.22 720.39,-40.45"/>
</g>
<!-- node8 -->
<g id="node9" class="node">
<title>node8</title>
<polygon fill="lightblue" stroke="black" points="780.25,-0.5 780.25,-36.5 896.25,-36.5 896.25,-0.5 780.25,-0.5"/>
<text xml:space="preserve" text-anchor="middle" x="789.75" y="-13.47" font-family="Helvetica,sans-Serif" font-size="12.00"> </text>
<polyline fill="none" stroke="black" points="799.25,-0.5 799.25,-36.5"/>
<text xml:space="preserve" text-anchor="middle" x="814" y="-13.47" font-family="Helvetica,sans-Serif" font-size="12.00">21</text>
<polyline fill="none" stroke="black" points="828.75,-0.5 828.75,-36.5"/>
<text xml:space="preserve" text-anchor="middle" x="838.25" y="-13.47" font-family="Helvetica,sans-Serif" font-size="12.00"> </text>
<polyline fill="none" stroke="black" points="847.75,-0.5 847.75,-36.5"/>
<text xml:space="preserve" text-anchor="middle" x="862.5" y="-13.47" font-family="Helvetica,sans-Serif" font-size="12.00">22</text>
<polyline fill="none" stroke="black" points="877.25,-0.5 877.25,-36.5"/>
<text xml:space="preserve" text-anchor="middle" x="886.75" y="-13.47" font-family="Helvetica,sans-Serif" font-size="12.00"> </text>
</g>
<!-- node6&#45;&gt;node8 -->
<g id="edge6" class="edge">
<title>node6:p1&#45;&gt;node8</title>
<path fill="none" stroke="black" d="M783.25,-73C783.25,-60.77 790.32,-50.43 799.4,-42.2"/>
<polygon fill="black" stroke="black" points="800.91,-44.13 804.77,-37.8 797.8,-40.34 800.91,-44.13"/>
</g>
<!-- node9 -->
<g id="node10" class="node">
<title>node9</title>
<polygon fill="lightblue" stroke="black" points="914.25,-0.5 914.25,-36.5 1030.25,-36.5 1030.25,-0.5 914.25,-0.5"/>
<text xml:space="preserve" text-anchor="middle" x="923.75" y="-13.47" font-family="Helvetica,sans-Serif" font-size="12.00"> </text>
<polyline fill="none" stroke="black" points="933.25,-0.5 933.25,-36.5"/>
<text xml:space="preserve" text-anchor="middle" x="948" y="-13.47" font-family="Helvetica,sans-Serif" font-size="12.00">25</text>
<polyline fill="none" stroke="black" points="962.75,-0.5 962.75,-36.5"/>
<text xml:space="preserve" text-anchor="middle" x="972.25" y="-13.47" font-family="Helvetica,sans-Serif" font-size="12.00"> </text>
<polyline fill="none" stroke="black" points="981.75,-0.5 981.75,-36.5"/>
<text xml:space="preserve" text-anchor="middle" x="996.5" y="-13.47" font-family="Helvetica,sans-Serif" font-size="12.00">26</text>
<polyline fill="none" stroke="black" points="1011.25,-0.5 1011.25,-36.5"/>
<text xml:space="preserve" text-anchor="middle" x="1020.75" y="-13.47" font-family="Helvetica,sans-Serif" font-size="12.00"> </text>
</g>
<!-- node6&#45;&gt;node9 -->
<g id="edge7" class="edge">
<title>node6:p2&#45;&gt;node9</title>
<path fill="none" stroke="black" d="M842.25,-91.5C883.46,-91.5 923.85,-63.47 948.41,-42.39"/>
<polygon fill="black" stroke="black" points="949.83,-44.4 953.46,-37.93 946.59,-40.72 949.83,-44.4"/>
</g>
</g>
</svg>
