<?xml version="1.0" encoding="UTF-8" standalone="no"?>
<!DOCTYPE svg PUBLIC "-//W3C//DTD SVG 1.1//EN"
 "http://www.w3.org/Graphics/SVG/1.1/DTD/svg11.dtd">
<!-- Generated by graphviz version 14.1.5 (20260411.2331)
 -->
<!-- Title: ArvoreBt Pages: 1 -->
<svg width="458pt" height="191pt"
 viewBox="0.00 0.00 458.00 191.00" xmlns="http://www.w3.org/2000/svg" xmlns:xlink="http://www.w3.org/1999/xlink">
<g id="graph0" class="graph" transform="scale(1 1) rotate(0) translate(4 187)">
<title>ArvoreBt</title>
<polygon fill="white" stroke="none" points="-4,4 -4,-187 454,-187 454,4 -4,4"/>
<!-- node0 -->
<g id="node1" class="node">
<title>node0</title>
<polygon fill="lightblue" stroke="black" points="184.5,-146.5 184.5,-182.5 252,-182.5 252,-146.5 184.5,-146.5"/>
<text xml:space="preserve" text-anchor="middle" x="194" y="-159.47" font-family="Helvetica,sans-Serif" font-size="12.00"> </text>
<polyline fill="none" stroke="black" points="203.5,-146.5 203.5,-182.5"/>
<text xml:space="preserve" text-anchor="middle" x="218.25" y="-159.47" font-family="Helvetica,sans-Serif" font-size="12.00">10</text>
<polyline fill="none" stroke="black" points="233,-146.5 233,-182.5"/>
<text xml:space="preserve" text-anchor="middle" x="242.5" y="-159.47" font-family="Helvetica,sans-Serif" font-size="12.00"> </text>
</g>
<!-- node1 -->
<g id="node2" class="node">
<title>node1</title>
<polygon fill="lightblue" stroke="black" points="100.88,-73.5 100.88,-109.5 161.62,-109.5 161.62,-73.5 100.88,-73.5"/>
<text xml:space="preserve" text-anchor="middle" x="110.38" y="-86.47" font-family="Helvetica,sans-Serif" font-size="12.00"> </text>
<polyline fill="none" stroke="black" points="119.88,-73.5 119.88,-109.5"/>
<text xml:space="preserve" text-anchor="middle" x="131.25" y="-86.47" font-family="Helvetica,sans-Serif" font-size="12.00">6</text>
<polyline fill="none" stroke="black" points="142.62,-73.5 142.62,-109.5"/>
<text xml:space="preserve" text-anchor="middle" x="152.12" y="-86.47" font-family="Helvetica,sans-Serif" font-size="12.00"> </text>
</g>
<!-- node0&#45;&gt;node1 -->
<g id="edge5" class="edge">
<title>node0:p0&#45;&gt;node1</title>
<path fill="none" stroke="black" d="M194,-146C194,-130.15 182.27,-118.01 168.95,-109.32"/>
<polygon fill="black" stroke="black" points="170.45,-107.37 163.19,-105.88 167.93,-111.57 170.45,-107.37"/>
</g>
<!-- node4 -->
<g id="node5" class="node">
<title>node4</title>
<polygon fill="lightblue" stroke="black" points="272.5,-73.5 272.5,-109.5 340,-109.5 340,-73.5 272.5,-73.5"/>
<text xml:space="preserve" text-anchor="middle" x="282" y="-86.47" font-family="Helvetica,sans-Serif" font-size="12.00"> </text>
<polyline fill="none" stroke="black" points="291.5,-73.5 291.5,-109.5"/>
<text xml:space="preserve" text-anchor="middle" x="306.25" y="-86.47" font-family="Helvetica,sans-Serif" font-size="12.00">20</text>
<polyline fill="none" stroke="black" points="321,-73.5 321,-109.5"/>
<text xml:space="preserve" text-anchor="middle" x="330.5" y="-86.47" font-family="Helvetica,sans-Serif" font-size="12.00"> </text>
</g>
<!-- node0&#45;&gt;node4 -->
<g id="edge6" class="edge">
<title>node0:p1&#45;&gt;node4</title>
<path fill="none" stroke="black" d="M242.5,-146C242.5,-131.13 252.81,-119.56 265.13,-111.06"/>
<polygon fill="black" stroke="black" points="266.24,-113.25 270.86,-107.45 263.63,-109.11 266.24,-113.25"/>
</g>
<!-- node2 -->
<g id="node3" class="node">
<title>node2</title>
<polygon fill="lightblue" stroke="black" points="0,-0.5 0,-36.5 102.5,-36.5 102.5,-0.5 0,-0.5"/>
<text xml:space="preserve" text-anchor="middle" x="9.5" y="-13.47" font-family="Helvetica,sans-Serif" font-size="12.00"> </text>
<polyline fill="none" stroke="black" points="19,-0.5 19,-36.5"/>
<text xml:space="preserve" text-anchor="middle" x="30.38" y="-13.47" font-family="Helvetica,sans-Serif" font-size="12.00">3</text>
<polyline fill="none" stroke="black" points="41.75,-0.5 41.75,-36.5"/>
<text xml:space="preserve" text-anchor="middle" x="51.25" y="-13.47" font-family="Helvetica,sans-Serif" font-size="12.00"> </text>
<polyline fill="none" stroke="black" points="60.75,-0.5 60.75,-36.5"/>
<text xml:space="preserve" text-anchor="middle" x="72.12" y="-13.47" font-family="Helvetica,sans-Serif" font-size="12.00">5</text>
<polyline fill="none" stroke="black" points="83.5,-0.5 83.5,-36.5"/>
<text xml:space="preserve" text-anchor="middle" x="93" y="-13.47" font-family="Helvetica,sans-Serif" font-size="12.00"> </text>
</g>
<!-- node1&#45;&gt;node2 -->
<g id="edge1" class="edge">
<title>node1:p0&#45;&gt;node2</title>
<path fill="none" stroke="black" d="M110.38,-73C110.38,-60.51 103.03,-50.18 93.52,-42.03"/>
<polygon fill="black" stroke="black" points="95.24,-40.27 88.2,-37.92 92.24,-44.14 95.24,-40.27"/>
</g>
<!-- node3 -->
<g id="node4" class="node">
<title>node3</title>
<polygon fill="lightblue" stroke="black" points="120.88,-0.5 120.88,-36.5 181.62,-36.5 181.62,-0.5 120.88,-0.5"/>
<text xml:space="preserve" text-anchor="middle" x="130.38" y="-13.47" font-family="Helvetica,sans-Serif" font-size="12.00"> </text>
<polyline fill="none" stroke="black" points="139.88,-0.5 139.88,-36.5"/>
<text xml:space="preserve" text-anchor="middle" x="151.25" y="-13.47" font-family="Helvetica,sans-Serif" font-size="12.00">7</text>
<polyline fill="none" stroke="black" points="162.62,-0.5 162.62,-36.5"/>
<text xml:space="preserve" text-anchor="middle" x="172.12" y="-13.47" font-family="Helvetica,sans-Serif" font-size="12.00"> </text>
</g>
<!-- node1&#45;&gt;node3 -->
<g id="edge2" class="edge">
<title>node1:p1&#45;&gt;node3</title>
<path fill="none" stroke="black" d="M152.12,-73C152.12,-63.94 152,-54.02 151.84,-45.21"/>
<polygon fill="black" stroke="black" points="154.29,-45.31 151.71,-38.36 149.39,-45.41 154.29,-45.31"/>
</g>
<!-- node5 -->
<g id="node6" class="node">
<title>node5</title>
<polygon fill="lightblue" stroke="black" points="200,-0.5 200,-36.5 364.5,-36.5 364.5,-0.5 200,-0.5"/>
<text xml:space="preserve" text-anchor="middle" x="209.5" y="-13.47" font-family="Helvetica,sans-Serif" font-size="12.00"> </text>
<polyline fill="none" stroke="black" points="219,-0.5 219,-36.5"/>
<text xml:space="preserve" text-anchor="middle" x="233.75" y="-13.47" font-family="Helvetica,sans-Serif" font-size="12.00">12</text>
<polyline fill="none" stroke="black" points="248.5,-0.5 248.5,-36.5"/>
<text xml:space="preserve" text-anchor="middle" x="258" y="-13.47" font-family="Helvetica,sans-Serif" font-size="12.00"> </text>
<polyline fill="none" stroke="black" points="267.5,-0.5 267.5,-36.5"/>
<text xml:space="preserve" text-anchor="middle" x="282.25" y="-13.47" font-family="Helvetica,sans-Serif" font-size="12.00">15</text>
<polyline fill="none" stroke="black" points="297,-0.5 297,-36.5"/>
<text xml:space="preserve" text-anchor="middle" x="306.5" y="-13.47" font-family="Helvetica,sans-Serif" font-size="12.00"> </text>
<polyline fill="none" stroke="black" points="316,-0.5 316,-36.5"/>
<text xml:space="preserve" text-anchor="middle" x="330.75" y="-13.47" font-family="Helvetica,sans-Serif" font-size="12.00">17</text>
<polyline fill="none" stroke="black" points="345.5,-0.5 345.5,-36.5"/>
<text xml:space="preserve" text-anchor="middle" x="355" y="-13.47" font-family="Helvetica,sans-Serif" font-size="12.00"> </text>
</g>
<!-- node4&#45;&gt;node5 -->
<g id="edge3" class="edge">
<title>node4:p0&#45;&gt;node5</title>
<path fill="none" stroke="black" d="M282,-73C282,-63.94 282.04,-54.03 282.08,-45.22"/>
<polygon fill="black" stroke="black" points="284.53,-45.37 282.12,-38.36 279.63,-45.35 284.53,-45.37"/>
</g>
<!-- node6 -->
<g id="node7" class="node">
<title>node6</title>
<polygon fill="lightblue" stroke="black" points="382.5,-0.5 382.5,-36.5 450,-36.5 450,-0.5 382.5,-0.5"/>
<text xml:space="preserve" text-anchor="middle" x="392" y="-13.47" font-family="Helvetica,sans-Serif" font-size="12.00"> </text>
<polyline fill="none" stroke="black" points="401.5,-0.5 401.5,-36.5"/>
<text xml:space="preserve" text-anchor="middle" x="416.25" y="-13.47" font-family="Helvetica,sans-Serif" font-size="12.00">30</text>
<polyline fill="none" stroke="black" points="431,-0.5 431,-36.5"/>
<text xml:space="preserve" text-anchor="middle" x="440.5" y="-13.47" font-family="Helvetica,sans-Serif" font-size="12.00"> </text>
</g>
<!-- node4&#45;&gt;node6 -->
<g id="edge4" class="edge">
<title>node4:p1&#45;&gt;node6</title>
<path fill="none" stroke="black" d="M330.5,-73C330.5,-61.54 352.82,-47.85 374.68,-37.19"/>
<polygon fill="black" stroke="black" points="375.71,-39.41 380.99,-34.2 373.62,-34.98 375.71,-39.41"/>
</g>
</g>
</svg>
