<?xml version="1.0" encoding="UTF-8" standalone="no"?>
<!DOCTYPE svg PUBLIC "-//W3C//DTD SVG 1.1//EN"
 "http://www.w3.org/Graphics/SVG/1.1/DTD/svg11.dtd">
<!-- Generated by graphviz version 14.1.5 (20260411.2331)
 -->
<!-- Title: ArvoreBt Pages: 1 -->
<svg width="379pt" height="118pt"
 viewBox="0.00 0.00 379.00 118.00" xmlns="http://www.w3.org/2000/svg" xmlns:xlink="http://www.w3.org/1999/xlink">
<g id="graph0" class="graph" transform="scale(1 1) rotate(0) translate(4 114)">
<title>ArvoreBt</title>
<polygon fill="white" stroke="none" points="-4,4 -4,-114 375,-114 375,4 -4,4"/>
<!-- node0 -->
<g id="node1" class="node">
<title>node0</title>
<polygon fill="lightblue" stroke="black" points="145.25,-73.5 145.25,-109.5 261.25,-109.5 261.25,-73.5 145.25,-73.5"/>
<text xml:space="preserve" text-anchor="middle" x="154.75" y="-86.47" font-family="Helvetica,sans-Serif" font-size="12.00"> </text>
<polyline fill="none" stroke="black" points="164.25,-73.5 164.25,-109.5"/>
<text xml:space="preserve" text-anchor="middle" x="179" y="-86.47" font-family="Helvetica,sans-Serif" font-size="12.00">10</text>
<polyline fill="none" stroke="black" points="193.75,-73.5 193.75,-109.5"/>
<text xml:space="preserve" text-anchor="middle" x="203.25" y="-86.47" font-family="Helvetica,sans-Serif" font-size="12.00"> </text>
<polyline fill="none" stroke="black" points="212.75,-73.5 212.75,-109.5"/>
<text xml:space="preserve" text-anchor="middle" x="227.5" y="-86.47" font-family="Helvetica,sans-Serif" font-size="12.00">20</text>
<polyline fill="none" stroke="black" points="242.25,-73.5 242.25,-109.5"/>
<text xml:space="preserve" text-anchor="middle" x="251.75" y="-86.47" font-family="Helvetica,sans-Serif" font-size="12.00"> </text>
</g>
<!-- node1 -->
<g id="node2" class="node">
<title>node1</title>
<polygon fill="lightblue" stroke="black" points="0,-0.5 0,-36.5 102.5,-36.5 102.5,-0.5 0,-0.5"/>
<text xml:space="preserve" text-anchor="middle" x="9.5" y="-13.47" font-family="Helvetica,sans-Serif" font-size="12.00"> </text>
<polyline fill="none" stroke="black" points="19,-0.5 19,-36.5"/>
<text xml:space="preserve" text-anchor="middle" x="30.38" y="-13.47" font-family="Helvetica,sans-Serif" font-size="12.00">5</text>
<polyline fill="none" stroke="black" points="41.75,-0.5 41.75,-36.5"/>
<text xml:space="preserve" text-anchor="middle" x="51.25" y="-13.47" font-family="Helvetica,sans-Serif" font-size="12.00"> </text>
<polyline fill="none" stroke="black" points="60.75,-0.5 60.75,-36.5"/>
<text xml:space="preserve" text-anchor="middle" x="72.12" y="-13.47" font-family="Helvetica,sans-Serif" font-size="12.00">7</text>
<polyline fill="none" stroke="black" points="83.5,-0.5 83.5,-36.5"/>
<text xml:space="preserve" text-anchor="middle" x="93" y="-13.47" font-family="Helvetica,sans-Serif" font-size="12.00"> </text>
</g>
<!-- node0&#45;&gt;node1 -->
<g id="edge1" class="edge">
<title>node0:p0&#45;&gt;node1</title>
<path fill="none" stroke="black" d="M154.75,-73C154.75,-61.37 133.86,-49.39 110.86,-39.73"/>
<polygon fill="black" stroke="black" points="111.81,-37.47 104.4,-37.11 109.97,-42.01 111.81,-37.47"/>
</g>
<!-- node2 -->
<g id="node3" class="node">
<title>node2</title>
<polygon fill="lightblue" stroke="black" points="121,-0.5 121,-36.5 285.5,-36.5 285.5,-0.5 121,-0.5"/>
<text xml:space="preserve" text-anchor="middle" x="130.5" y="-13.47" font-family="Helvetica,sans-Serif" font-size="12.00"> </text>
<polyline fill="none" stroke="black" points="140,-0.5 140,-36.5"/>
<text xml:space="preserve" text-anchor="middle" x="154.75" y="-13.47" font-family="Helvetica,sans-Serif" font-size="12.00">12</text>
<polyline fill="none" stroke="black" points="169.5,-0.5 169.5,-36.5"/>
<text xml:space="preserve" text-anchor="middle" x="179" y="-13.47" font-family="Helvetica,sans-Serif" font-size="12.00"> </text>
<polyline fill="none" stroke="black" points="188.5,-0.5 188.5,-36.5"/>
<text xml:space="preserve" text-anchor="middle" x="203.25" y="-13.47" font-family="Helvetica,sans-Serif" font-size="12.00">15</text>
<polyline fill="none" stroke="black" points="218,-0.5 218,-36.5"/>
<text xml:space="preserve" text-anchor="middle" x="227.5" y="-13.47" font-family="Helvetica,sans-Serif" font-size="12.00"> </text>
<polyline fill="none" stroke="black" points="237,-0.5 237,-36.5"/>
<text xml:space="preserve" text-anchor="middle" x="251.75" y="-13.47" font-family="Helvetica,sans-Serif" font-size="12.00">17</text>
<polyline fill="none" stroke="black" points="266.5,-0.5 266.5,-36.5"/>
<text xml:space="preserve" text-anchor="middle" x="276" y="-13.47" font-family="Helvetica,sans-Serif" font-size="12.00"> </text>
</g>
<!-- node0&#45;&gt;node2 -->
<g id="edge2" class="edge">
<title>node0:p1&#45;&gt;node2</title>
<path fill="none" stroke="black" d="M203.25,-73C203.25,-63.94 203.25,-54.03 203.25,-45.22"/>
<polygon fill="black" stroke="black" points="205.7,-45.36 203.25,-38.36 200.8,-45.36 205.7,-45.36"/>
</g>
<!-- node3 -->
<g id="node4" class="node">
<title>node3</title>
<polygon fill="lightblue" stroke="black" points="303.5,-0.5 303.5,-36.5 371,-36.5 371,-0.5 303.5,-0.5"/>
<text xml:space="preserve" text-anchor="middle" x="313" y="-13.47" font-family="Helvetica,sans-Serif" font-size="12.00"> </text>
<polyline fill="none" stroke="black" points="322.5,-0.5 322.5,-36.5"/>
<text xml:space="preserve" text-anchor="middle" x="337.25" y="-13.47" font-family="Helvetica,sans-Serif" font-size="12.00">30</text>
<polyline fill="none" stroke="black" points="352,-0.5 352,-36.5"/>
<text xml:space="preserve" text-anchor="middle" x="361.5" y="-13.47" font-family="Helvetica,sans-Serif" font-size="12.00"> </text>
</g>
<!-- node0&#45;&gt;node3 -->
<g id="edge3" class="edge">
<title>node0:p2&#45;&gt;node3</title>
<path fill="none" stroke="black" d="M251.75,-73C251.75,-61.57 274,-47.87 295.8,-37.2"/>
<polygon fill="black" stroke="black" points="296.82,-39.43 302.09,-34.21 294.72,-35.01 296.82,-39.43"/>
</g>
</g>
</svg>
