<?xml version="1.0" encoding="UTF-8" standalone="no"?>
<!DOCTYPE svg PUBLIC "-//W3C//DTD SVG 1.1//EN"
 "http://www.w3.org/Graphics/SVG/1.1/DTD/svg11.dtd">
<!-- Generated by graphviz version 14.1.5 (20260411.2331)
 -->
<!-- Title: ArvoreBt Pages: 1 -->
<svg width="258pt" height="118pt"
 viewBox="0.00 0.00 258.00 118.00" xmlns="http://www.w3.org/2000/svg" xmlns:xlink="http://www.w3.org/1999/xlink">
<g id="graph0" class="graph" transform="scale(1 1) rotate(0) translate(4 114)">
<title>ArvoreBt</title>
<polygon fill="white" stroke="none" points="-4,4 -4,-114 254,-114 254,4 -4,4"/>
<!-- node0 -->
<g id="node1" class="node">
<title>node0</title>
<polygon fill="lightblue" stroke="black" points="67,-73.5 67,-109.5 134.5,-109.5 134.5,-73.5 67,-73.5"/>
<text xml:space="preserve" text-anchor="middle" x="76.5" y="-86.47" font-family="Helvetica,sans-Serif" font-size="12.00"> </text>
<polyline fill="none" stroke="black" points="86,-73.5 86,-109.5"/>
<text xml:space="preserve" text-anchor="middle" x="100.75" y="-86.47" font-family="Helvetica,sans-Serif" font-size="12.00">20</text>
<polyline fill="none" stroke="black" points="115.5,-73.5 115.5,-109.5"/>
<text xml:space="preserve" text-anchor="middle" x="125" y="-86.47" font-family="Helvetica,sans-Serif" font-size="12.00"> </text>
</g>
<!-- node1 -->
<g id="node2" class="node">
<title>node1</title>
<polygon fill="lightblue" stroke="black" points="0,-0.5 0,-36.5 67.5,-36.5 67.5,-0.5 0,-0.5"/>
<text xml:space="preserve" text-anchor="middle" x="9.5" y="-13.47" font-family="Helvetica,sans-Serif" font-size="12.00"> </text>
<polyline fill="none" stroke="black" points="19,-0.5 19,-36.5"/>
<text xml:space="preserve" text-anchor="middle" x="33.75" y="-13.47" font-family="Helvetica,sans-Serif" font-size="12.00">10</text>
<polyline fill="none" stroke="black" points="48.5,-0.5 48.5,-36.5"/>
<text xml:space="preserve" text-anchor="middle" x="58" y="-13.47" font-family="Helvetica,sans-Serif" font-size="12.00"> </text>
</g>
<!-- node0&#45;&gt;node1 -->
<g id="edge1" class="edge">
<title>node0:p0&#45;&gt;node1</title>
<path fill="none" stroke="black" d="M76.5,-73C76.5,-61.52 70.42,-51.09 62.84,-42.55"/>
<polygon fill="black" stroke="black" points="64.82,-41.07 58.18,-37.76 61.31,-44.48 64.82,-41.07"/>
</g>
<!-- node2 -->
<g id="node3" class="node">
<title>node2</title>
<polygon fill="lightblue" stroke="black" points="85.5,-0.5 85.5,-36.5 250,-36.5 250,-0.5 85.5,-0.5"/>
<text xml:space="preserve" text-anchor="middle" x="95" y="-13.47" font-family="Helvetica,sans-Serif" font-size="12.00"> </text>
<polyline fill="none" stroke="black" points="104.5,-0.5 104.5,-36.5"/>
<text xml:space="preserve" text-anchor="middle" x="119.25" y="-13.47" font-family="Helvetica,sans-Serif" font-size="12.00">30</text>
<polyline fill="none" stroke="black" points="134,-0.5 134,-36.5"/>
<text xml:space="preserve" text-anchor="middle" x="143.5" y="-13.47" font-family="Helvetica,sans-Serif" font-size="12.00"> </text>
<polyline fill="none" stroke="black" points="153,-0.5 153,-36.5"/>
<text xml:space="preserve" text-anchor="middle" x="167.75" y="-13.47" font-family="Helvetica,sans-Serif" font-size="12.00">40</text>
<polyline fill="none" stroke="black" points="182.5,-0.5 182.5,-36.5"/>
<text xml:space="preserve" text-anchor="middle" x="192" y="-13.47" font-family="Helvetica,sans-Serif" font-size="12.00"> </text>
<polyline fill="none" stroke="black" points="201.5,-0.5 201.5,-36.5"/>
<text xml:space="preserve" text-anchor="middle" x="216.25" y="-13.47" font-family="Helvetica,sans-Serif" font-size="12.00">50</text>
<polyline fill="none" stroke="black" points="231,-0.5 231,-36.5"/>
<text xml:space="preserve" text-anchor="middle" x="240.5" y="-13.47" font-family="Helvetica,sans-Serif" font-size="12.00"> </text>
</g>
<!-- node0&#45;&gt;node2 -->
<g id="edge2" class="edge">
<title>node0:p1&#45;&gt;node2</title>
<path fill="none" stroke="black" d="M125,-73C125,-61.52 131.08,-51.09 138.66,-42.55"/>
<polygon fill="black" stroke="black" points="140.19,-44.48 143.32,-37.76 136.68,-41.07 140.19,-44.48"/>
</g>
</g>
</svg>
